<svg xmlns="http://www.w3.org/2000/svg" width="42" height="42" fill="none" viewBox="0 0 42 42">
  <rect width="40" height="40" x="1" y="1" fill="#fff" rx="20"/>
  <path stroke="#98A2B3" stroke-linecap="round" stroke-linejoin="round" stroke-width="1.667" d="M21 21.833a.833.833 0 1 0 0-1.666.833.833 0 0 0 0 1.666Zm5.833 0a.833.833 0 1 0 0-1.666.833.833 0 0 0 0 1.666Zm-11.666 0a.833.833 0 1 0 0-1.666.833.833 0 0 0 0 1.666Z"/>
  <rect width="40" height="40" x="1" y="1" stroke="#D0D5DD" stroke-dasharray="1 3" stroke-linecap="round" stroke-linejoin="round" rx="20"/>
</svg>
