<svg xmlns="http://www.w3.org/2000/svg" width="42" height="42" fill="none" viewBox="0 0 42 42">
  <rect width="40" height="40" x="1" y="1" fill="#fff" rx="20"/>
  <path stroke="#98A2B3" stroke-linecap="round" stroke-linejoin="round" stroke-width="1.667" d="M28.326 21.506c.204-.174.305-.261.343-.365a.417.417 0 0 0 0-.282c-.038-.104-.14-.19-.343-.365l-7.059-6.05c-.35-.3-.525-.45-.673-.455a.417.417 0 0 0-.334.154c-.093.115-.093.345-.093.806v3.58a8.055 8.055 0 0 0-6.667 7.93v.51a9.502 9.502 0 0 1 6.667-3.41v3.491c0 .462 0 .692.093.807a.42.42 0 0 0 .334.154c.148-.004.323-.154.673-.454l7.06-6.05Z"/>
  <rect width="40" height="40" x="1" y="1" stroke="#D0D5DD" stroke-dasharray="1 3" stroke-linecap="round" stroke-linejoin="round" rx="20"/>
</svg>
