<svg xmlns="http://www.w3.org/2000/svg" width="28" height="28" fill="none" viewBox="0 0 28 28">
  <path stroke="#98A2B3" stroke-linecap="round" stroke-linejoin="round" stroke-width="1.667" d="M21.326 14.506c.204-.174.305-.261.343-.365a.417.417 0 0 0 0-.282c-.038-.104-.14-.19-.343-.365l-7.059-6.05c-.35-.3-.525-.45-.673-.455a.417.417 0 0 0-.334.154c-.093.115-.093.345-.093.806v3.58a8.055 8.055 0 0 0-6.667 7.93v.51a9.5 9.5 0 0 1 6.667-3.41v3.491c0 .462 0 .692.093.807a.42.42 0 0 0 .334.154c.148-.004.323-.154.673-.454l7.06-6.05Z"/>
</svg>
