<svg xmlns="http://www.w3.org/2000/svg" width="24" height="24" fill="none" viewBox="0 0 24 24">
  <path fill="#2EB67D" d="M19.875 11.25a1.875 1.875 0 1 0 0-3.75C18.84 7.5 18 8.34 18 9.375v1.875h1.875Zm-5.25 0c1.036 0 1.875-.84 1.875-1.875v-5.25a1.875 1.875 0 0 0-3.75 0v5.25c0 1.035.84 1.875 1.875 1.875Z"/>
  <path fill="#E01E5A" d="M4.125 12.75a1.875 1.875 0 1 0 0 3.75C5.16 16.5 6 15.66 6 14.625V12.75H4.125Zm5.25 0c-1.036 0-1.875.84-1.875 1.875v5.25a1.875 1.875 0 0 0 3.75 0v-5.25c0-1.035-.84-1.875-1.875-1.875Z"/>
  <path fill="#ECB22E" d="M12.75 19.875a1.875 1.875 0 1 0 3.75 0c0-1.035-.84-1.875-1.875-1.875H12.75v1.875Zm0-5.25c0 1.036.84 1.875 1.875 1.875h5.25a1.875 1.875 0 1 0 0-3.75h-5.25c-1.035 0-1.875.84-1.875 1.875Z"/>
  <path fill="#36C5F0" d="M11.25 4.125a1.875 1.875 0 1 0-3.75 0C7.5 5.16 8.34 6 9.375 6h1.875V4.125Zm0 5.25c0-1.036-.84-1.875-1.875-1.875h-5.25a1.875 1.875 0 0 0 0 3.75h5.25c1.035 0 1.875-.84 1.875-1.875Z"/>
</svg>
